<?xml version="1.0" standalone="no"?>
<!DOCTYPE svg PUBLIC "-//W3C//DTD SVG 20010904//EN"
 "http://www.w3.org/TR/2001/REC-SVG-20010904/DTD/svg10.dtd">
<svg version="1.0" xmlns="http://www.w3.org/2000/svg"
 width="105.000000pt" height="105.000000pt" viewBox="0 0 105.000000 105.000000"
 preserveAspectRatio="xMidYMid meet">
<metadata>
Created by potrace 1.11, written by Peter Selinger 2001-2013
</metadata>
<g transform="translate(0.000000,105.000000) scale(0.100000,-0.100000)"
fill="#000000" stroke="none">
<path d="M508 1045 c-2 -2 -25 -5 -53 -8 -200 -23 -381 -180 -435 -377 -18
-66 -20 -182 -4 -253 46 -198 208 -357 407 -397 107 -22 254 1 347 53 78 44
159 119 197 184 128 219 95 476 -83 649 -92 90 -190 133 -336 147 -21 2 -39 3
-40 2z"/>
</g>
</svg>
