<svg id="Layer_1" data-name="Layer 1" xmlns="http://www.w3.org/2000/svg" viewBox="0 0 566.93 283.46"><defs><style>.cls-1{fill:#1d1d1b;}.cls-2{fill:#553080;}</style></defs><title>LSO Logo</title><path class="cls-1" d="M186.28,121.75v40h-6.56v-40Z"/><path class="cls-1" d="M218.7,144.19v17.52h-6.16V144.82c0-4.34-2.51-6.63-6.39-6.63-4.06,0-7.25,2.4-7.25,8.22v15.3h-6.17V133.17h6.17v3.65c1.88-3,5-4.39,8.84-4.39C214.14,132.43,218.7,136.77,218.7,144.19Z"/><path class="cls-1" d="M250.16,144.19v17.52H244V144.82c0-4.34-2.51-6.63-6.39-6.63-4,0-7.25,2.4-7.25,8.22v15.3h-6.16V133.17h6.16v3.65c1.88-3,5-4.39,8.85-4.39C245.59,132.43,250.16,136.77,250.16,144.19Z"/><path class="cls-1" d="M254,147.44a15.07,15.07,0,1,1,15.07,15A14.9,14.9,0,0,1,254,147.44Zm24,0a8.91,8.91,0,1,0-8.9,9A8.77,8.77,0,0,0,278,147.44Z"/><path class="cls-1" d="M313.57,133.17l-11.13,28.54h-7.13l-11.13-28.54h6.73l8,21.69,7.94-21.69Z"/><path class="cls-1" d="M343.94,133.17v28.54h-6.16V157.6a11.72,11.72,0,0,1-10,4.85c-7.76,0-14.21-6.56-14.21-15s6.45-15,14.21-15a11.85,11.85,0,0,1,10,4.79v-4.05Zm-6.16,14.27a9,9,0,1,0-9,9.13A8.82,8.82,0,0,0,337.78,147.44Z"/><path class="cls-1" d="M358.84,139.11v13.7c0,3.65,2.4,3.59,7.08,3.36v5.54c-9.48,1.14-13.25-1.48-13.25-8.9v-13.7h-5.25v-5.94h5.25V127l6.17-1.83v8h7.08v5.94Z"/><path class="cls-1" d="M383.21,156.8a8.71,8.71,0,0,0,7.37-3.54l5.08,3c-2.63,3.88-6.91,6.22-12.5,6.22-9.42,0-15.53-6.45-15.53-15s6.11-15,15.07-15c8.5,0,14.33,6.85,14.33,15.07a19.48,19.48,0,0,1-.23,2.57H374.08C375.05,154.52,378.65,156.8,383.21,156.8ZM390.8,145a7.93,7.93,0,0,0-8.16-7,8.3,8.3,0,0,0-8.62,7Z"/><path class="cls-1" d="M440,155.43v6.28H417.12v-40h6.56v33.68Z"/><path class="cls-1" d="M444.12,152.64l5.65-3.32c1.43,4.06,4.51,6.74,9.93,6.74,5.2,0,7.42-2.34,7.42-5.25,0-3.54-3.14-4.74-9.07-6.57-6.22-1.88-12.28-4.16-12.28-11.7,0-7.36,6.11-11.53,12.85-11.53a14.84,14.84,0,0,1,13.92,8.79L467,133c-1.43-3.2-3.94-5.59-8.39-5.59-3.83,0-6.28,1.94-6.28,5s2.22,4.4,8.05,6.22c6.62,2.12,13.3,4.17,13.3,12.1,0,7.31-5.83,11.76-14.16,11.76C451.65,162.45,446.23,158.57,444.12,152.64Z"/><path class="cls-1" d="M477.05,141.73a20.72,20.72,0,1,1,20.72,20.72A20.58,20.58,0,0,1,477.05,141.73Zm34.88,0a14.16,14.16,0,1,0-14.16,14.33A13.94,13.94,0,0,0,511.93,141.73Z"/><circle class="cls-2" cx="100.45" cy="141.73" r="52.01"/></svg>