<svg width="471px" height="105px" viewBox="0 0 471 105" version="1.1" xmlns="http://www.w3.org/2000/svg" xmlns:xlink="http://www.w3.org/1999/xlink">
    <!-- Generator: Sketch 49 (51002) - http://www.bohemiancoding.com/sketch -->
    <desc>LSO LOGO</desc>
    <defs></defs>
    <g id="Page-1" stroke="none" stroke-width="1" fill="none" fill-rule="evenodd">
        <g id="lso-logo-full" fill-rule="nonzero">
            <polygon id="Shape" fill="#1D1D1B" points="138.76 33 138.76 73 132.19 73 132.19 33"></polygon>
            <path d="M171.18,55.42 L171.18,72.94 L165,72.94 L165,56.05 C165,51.71 162.49,49.42 158.61,49.42 C154.56,49.42 151.36,51.82 151.36,57.64 L151.36,72.94 L145.2,72.94 L145.2,44.4 L151.36,44.4 L151.36,48.05 C153.24,45.05 156.36,43.66 160.21,43.66 C166.61,43.66 171.18,48 171.18,55.42 Z" id="Shape" fill="#1D1D1B"></path>
            <path d="M202.63,55.42 L202.63,72.94 L196.47,72.94 L196.47,56.05 C196.47,51.71 193.95,49.42 190.07,49.42 C186.07,49.42 182.82,51.82 182.82,57.64 L182.82,72.94 L176.66,72.94 L176.66,44.4 L182.82,44.4 L182.82,48.05 C184.71,45.05 187.82,43.66 191.67,43.66 C198.06,43.66 202.63,48 202.63,55.42 Z" id="Shape" fill="#1D1D1B"></path>
            <path d="M206.51,58.67 C206.481658,52.5684639 210.135322,47.0519479 215.764292,44.6973265 C221.393262,42.3427052 227.886585,43.6146947 232.211101,47.9191234 C236.535618,52.2235521 237.837825,58.7108831 235.509436,64.3507548 C233.181047,69.9906265 227.681602,73.6699342 221.58,73.67 C217.581505,73.7157152 213.732444,72.1523205 210.898322,69.3313627 C208.0642,66.5104049 206.482901,62.6686645 206.51,58.67 Z M230.51,58.67 C230.454919,53.768061 226.446193,49.8336301 221.544082,49.8702483 C216.64197,49.9068666 212.692468,53.9007446 212.710623,58.8029594 C212.728777,63.7051743 216.707752,67.6696905 221.61,67.67 C223.993651,67.6980057 226.286002,66.754485 227.959307,65.0566556 C229.632612,63.3588263 230.542682,61.052991 230.48,58.67 L230.51,58.67 Z" id="Shape" fill="#1D1D1B"></path>
            <polygon id="Shape" fill="#1D1D1B" points="266.05 44.4 254.92 72.94 247.78 72.94 236.65 44.4 243.39 44.4 251.39 66.09 259.32 44.4"></polygon>
            <path d="M296.41,44.4 L296.41,72.94 L290.25,72.94 L290.25,68.83 C287.943872,72.024866 284.186683,73.847103 280.25,73.68 C272.49,73.68 266.04,67.12 266.04,58.68 C266.04,50.24 272.49,43.68 280.25,43.68 C284.170809,43.5225017 287.915336,45.3161301 290.25,48.47 L290.25,44.4 L296.41,44.4 Z M290.25,58.67 C290.178449,53.716991 286.117881,49.752885 281.164584,49.8004144 C276.211286,49.8479437 272.227534,53.8892388 272.25104,58.8427088 C272.274547,63.7961788 276.296474,67.7994832 281.25,67.8 C283.675001,67.8510183 286.013986,66.9011221 287.716758,65.1737542 C289.419531,63.4463863 290.335788,61.0940201 290.25,58.67 Z" id="Shape" fill="#1D1D1B"></path>
            <path d="M311.31,50.34 L311.31,64 C311.31,67.65 313.71,67.59 318.39,67.36 L318.39,72.9 C308.92,74.04 305.15,71.42 305.15,64 L305.15,50.34 L299.9,50.34 L299.9,44.4 L305.15,44.4 L305.15,38.24 L311.31,36.41 L311.31,44.41 L318.39,44.41 L318.39,50.35 L311.31,50.34 Z" id="Shape" fill="#1D1D1B"></path>
            <path d="M335.69,68 C338.578801,68.1146154 341.336216,66.7883585 343.05,64.46 L348.13,67.46 C345.5,71.34 341.22,73.68 335.63,73.68 C326.21,73.68 320.1,67.23 320.1,58.68 C320.1,50.13 326.21,43.68 335.17,43.68 C343.68,43.68 349.5,50.53 349.5,58.75 C349.480216,59.6108083 349.403381,60.4693579 349.27,61.32 L326.55,61.32 C327.53,65.75 331.12,68 335.69,68 Z M343.28,56.24 C342.793687,52.1399802 339.246279,49.0968604 335.12,49.24 C330.877538,49.0200391 327.155354,52.0426942 326.5,56.24 L343.28,56.24 Z" id="Shape" fill="#1D1D1B"></path>
            <polygon id="Shape" fill="#1D1D1B" points="392.43 66.66 392.43 72.94 369.59 72.94 369.59 33 376.16 33 376.16 66.66"></polygon>
            <path d="M396.59,63.87 L402.24,60.55 C403.67,64.61 406.75,67.29 412.18,67.29 C417.37,67.29 419.6,64.95 419.6,62.04 C419.6,58.5 416.45,57.3 410.52,55.47 C404.3,53.59 398.25,51.31 398.25,43.77 C398.25,36.41 404.35,32.24 411.09,32.24 C417.068889,32.0879599 422.55395,35.5422471 425,41 L419.46,44.2 C418.03,41 415.52,38.61 411.07,38.61 C407.25,38.61 404.79,40.55 404.79,43.61 C404.79,46.67 407.02,48.01 412.84,49.83 C419.46,51.95 426.14,54 426.14,61.93 C426.14,69.24 420.32,73.69 411.98,73.69 C404.13,73.68 398.7,69.8 396.59,63.87 Z" id="Shape" fill="#1D1D1B"></path>
            <path d="M429.53,53 C429.53,41.55666 438.80666,32.28 450.25,32.28 C461.69334,32.28 470.97,41.55666 470.97,53 C470.97,64.44334 461.69334,73.72 450.25,73.72 C444.743277,73.7575899 439.451195,71.5866691 435.557263,67.692737 C431.663331,63.7988049 429.49241,58.5067233 429.53,53 Z M464.4,53 C464.536811,47.853202 461.869205,43.0377192 457.433352,40.4240142 C452.997499,37.8103092 447.492501,37.8103092 443.056648,40.4240142 C438.620795,43.0377192 435.953189,47.853202 436.09,53 C435.953189,58.146798 438.620795,62.9622808 443.056648,65.5759858 C447.492501,68.1896908 452.997499,68.1896908 457.433352,65.5759858 C461.869205,62.9622808 464.536811,58.146798 464.4,53 Z" id="Shape" fill="#1D1D1B"></path>
            <circle id="Oval" fill="#553080" cx="52.92" cy="52.96" r="52.01"></circle>
        </g>
    </g>
</svg>