<svg height="105" viewBox="0 0 471 105" width="471" xmlns="http://www.w3.org/2000/svg"><g fill="none"><g fill="#1d1d1b"><path d="m138.76 33v40h-6.57v-40z"/><path d="m171.18 55.42v17.52h-6.18v-16.89c0-4.34-2.51-6.63-6.39-6.63-4.05 0-7.25 2.4-7.25 8.22v15.3h-6.16v-28.54h6.16v3.65c1.88-3 5-4.39 8.85-4.39 6.4 0 10.97 4.34 10.97 11.76z"/><path d="m202.63 55.42v17.52h-6.16v-16.89c0-4.34-2.52-6.63-6.4-6.63-4 0-7.25 2.4-7.25 8.22v15.3h-6.16v-28.54h6.16v3.65c1.89-3 5-4.39 8.85-4.39 6.39 0 10.96 4.34 10.96 11.76z"/><path d="m206.51 58.67c-.028342-6.1015361 3.625322-11.6180521 9.254292-13.9726735 5.62897-2.3546213 12.122293-1.0826318 16.446809 3.2217969 4.324517 4.3044287 5.626724 10.7917597 3.298335 16.4316314s-7.827834 9.3191794-13.929436 9.3192452c-3.998495.0457152-7.847556-1.5176795-10.681678-4.3386373s-4.415421-6.6626982-4.388322-10.6613627zm24 0c-.055081-4.901939-4.063807-8.8363699-8.965918-8.7997517-4.902112.0366183-8.851614 4.0304963-8.833459 8.9327111.018154 4.9022149 3.997129 8.8667311 8.899377 8.8670406 2.383651.0280057 4.676002-.915515 6.349307-2.6133444 1.673305-1.6978293 2.583375-4.0036646 2.520693-6.3866556z"/><path d="m266.05 44.4-11.13 28.54h-7.14l-11.13-28.54h6.74l8 21.69 7.93-21.69z"/><path d="m296.41 44.4v28.54h-6.16v-4.11c-2.306128 3.194866-6.063317 5.017103-10 4.85-7.76 0-14.21-6.56-14.21-15s6.45-15 14.21-15c3.920809-.1574983 7.665336 1.6361301 10 4.79v-4.07zm-6.16 14.27c-.071551-4.953009-4.132119-8.917115-9.085416-8.8695856-4.953298.0475293-8.93705 4.0888244-8.913544 9.0422944.023507 4.95347 4.045434 8.9567744 8.99896 8.9572912 2.425001.0510183 4.763986-.8988779 6.466758-2.6262458 1.702773-1.7273679 2.61903-4.0797341 2.533242-6.5037542z"/><path d="m311.31 50.34v13.66c0 3.65 2.4 3.59 7.08 3.36v5.54c-9.47 1.14-13.24-1.48-13.24-8.9v-13.66h-5.25v-5.94h5.25v-6.16l6.16-1.83v8h7.08v5.94z"/><path d="m335.69 68c2.888801.1146154 5.646216-1.2116415 7.36-3.54l5.08 3c-2.63 3.88-6.91 6.22-12.5 6.22-9.42 0-15.53-6.45-15.53-15s6.11-15 15.07-15c8.51 0 14.33 6.85 14.33 15.07-.019784.8608083-.096619 1.7193579-.23 2.57h-22.72c.98 4.43 4.57 6.68 9.14 6.68zm7.59-11.76c-.486313-4.1000198-4.033721-7.1431396-8.16-7-4.242462-.2199609-7.964646 2.8026942-8.62 7z"/><path d="m392.43 66.66v6.28h-22.84v-39.94h6.57v33.66z"/><path d="m396.59 63.87 5.65-3.32c1.43 4.06 4.51 6.74 9.94 6.74 5.19 0 7.42-2.34 7.42-5.25 0-3.54-3.15-4.74-9.08-6.57-6.22-1.88-12.27-4.16-12.27-11.7 0-7.36 6.1-11.53 12.84-11.53 5.978889-.1520401 11.46395 3.3022471 13.91 8.76l-5.54 3.2c-1.43-3.2-3.94-5.59-8.39-5.59-3.82 0-6.28 1.94-6.28 5s2.23 4.4 8.05 6.22c6.62 2.12 13.3 4.17 13.3 12.1 0 7.31-5.82 11.76-14.16 11.76-7.85-.01-13.28-3.89-15.39-9.82z"/><path d="m429.53 53c0-11.44334 9.27666-20.72 20.72-20.72s20.72 9.27666 20.72 20.72-9.27666 20.72-20.72 20.72c-5.506723.0375899-10.798805-2.1333309-14.692737-6.027263s-6.064853-9.1860137-6.027263-14.692737zm34.87 0c.136811-5.146798-2.530795-9.9622808-6.966648-12.5759858s-9.940851-2.613705-14.376704 0-7.103459 7.4291878-6.966648 12.5759858c-.136811 5.146798 2.530795 9.9622808 6.966648 12.5759858s9.940851 2.613705 14.376704 0 7.103459-7.4291878 6.966648-12.5759858z"/></g><circle cx="52.92" cy="52.96" fill="#553080" r="52.01"/></g></svg>